# xmcd
#
# Track frame offsets:
#	150
#	15560
#	26330
#	42172
#	52552
#	76640
#	88782
#	106562
#	125430
#	140170
#	151650
#	166040
#	177842
#	193857
#	203050
#	216232
#	231245
#	249530
#
# Disc length: 3455 seconds
#
# Revision: 1
# Processed by: cddbd v1.5.1PL0 Copyright (c) Steve Scherf et al.
# Submitted via: CDex 1.50Beta5
#
DISCID=d70d7d12
DTITLE=さまざまなアーティスト - SF&アクション映画音楽
DYEAR=1900
DGENRE=
TTITLE0=2001年宇宙の旅
TTITLE1=スターウォーズ
TTITLE2=バットマン
TTITLE3=スーパーマン
TTITLE4=ロボコップ
TTITLE5=パルプ・フィクション
TTITLE6=バック・トゥ・ザ・フューチャー
TTITLE7=ゴースト・バスターズ
TTITLE8=グレムリン
TTITLE9=レイダーズ
TTITLE10=ロッキーのテーマ
TTITLE11=エイリアン
TTITLE12=ネバーエンディング・ストーリー
TTITLE13=007/ボンドのテーマ
TTITLE14=スタートレック・ジェネレーションズ
TTITLE15=ランボー
TTITLE16=ビバリー・ヒルズ・コップ
TTITLE17=未知との遭遇
EXTD=
EXTT0=
EXTT1=
EXTT2=
EXTT3=
EXTT4=
EXTT5=
EXTT6=
EXTT7=
EXTT8=
EXTT9=
EXTT10=
EXTT11=
EXTT12=
EXTT13=
EXTT14=
EXTT15=
EXTT16=
EXTT17=
PLAYORDER=
